<?xml version="1.0" encoding="utf-8" ?>
<svg xmlns="http://www.w3.org/2000/svg" xmlns:xlink="http://www.w3.org/1999/xlink" width="512" height="512">
	<path fill="#04152E" transform="scale(0.666667 0.666667)" d="M0 0.1875C1.70241 -0.185587 3.61693 -0.00979729 5.35479 -0.0090068C8.44963 -0.00759905 11.5445 -0.00845752 14.6393 -0.00881649C26.6055 -0.0102045 38.5716 -0.00977825 50.5378 -0.00976663C98.2915 -0.00972023 146.045 -0.00952629 193.799 -0.0102393C385.199 -0.0130972 576.6 -0.00755292 768 0L768 767.812C766.298 768.186 764.383 768.01 762.645 768.009C759.55 768.008 756.456 768.008 753.361 768.009C741.395 768.01 729.428 768.01 717.462 768.01C669.708 768.01 621.955 768.01 574.201 768.01C382.801 768.013 191.4 768.008 -0 768L0 0.1875Z"/>
	<path fill="#FEFAAF" transform="scale(0.666667 0.666667)" d="M469.261 116.391C469.828 113.714 470.835 112.3 472.615 110.245L482.737 117.747C480.283 119.502 478.064 121.021 476.725 123.836L469.261 116.391Z"/>
	<path fill="#FECA22" transform="scale(0.666667 0.666667)" d="M469.261 116.391C463.462 111.08 457.484 105.928 450.67 101.951C445.678 99.037 440.172 96.8538 435.499 93.4486C440.009 94.4288 444.166 96.0345 448.461 97.6929C456.877 100.943 465.312 104.899 472.615 110.245C470.835 112.3 469.828 113.714 469.261 116.391Z"/>
	<path fill="#FECA22" transform="scale(0.666667 0.666667)" d="M439.027 139.716C425.246 127.783 406.955 121.753 388.934 120.446C369.972 119.071 350.911 121.757 331.905 121.607C321.753 121.527 311.335 120.996 301.617 117.786C298.003 116.593 293.845 115.437 290.812 113.069L291.188 112.529C294.811 112.314 298.673 113.123 302.311 113.416C309.311 113.981 316.295 114.396 323.321 114.359C339.25 114.275 354.708 111.34 370.488 109.792C400.211 106.877 434.678 116.072 457.851 135.197L457.137 135.333C455.666 135.566 454.093 134.516 452.582 134.301C449.659 133.885 440.643 133.662 438.546 135.562C438.33 136.392 438.223 136.292 438.581 137.134C438.9 137.883 438.957 138.504 439.001 139.317L439.027 139.716Z"/>
	<path fill="#ED1413" transform="scale(0.666667 0.666667)" d="M337.989 675.176C333.948 674.89 329.817 673.756 325.875 672.851C317.02 670.817 308.059 668.455 299.566 665.203C262.474 650.999 226.525 627.262 201.554 596.134C195.189 588.199 189.048 579.335 184.96 570C173.265 543.298 171.073 509.534 181.852 482.253L182.053 482.557C185.332 487.607 187.207 493.912 189.786 499.384C195.74 512.021 202.189 524.482 207.633 537.352C212.322 537.17 217.403 537.003 222 538.04C244.744 543.171 261.455 563.14 273.543 581.881C284.539 598.93 293.653 617.044 305.214 633.746C315.289 648.3 327.364 661.087 337.989 675.176Z"/>
	<path fill="#FECA22" transform="scale(0.666667 0.666667)" d="M210.811 415.075L212.591 411.473C214.93 407.535 217.513 404.79 221.691 402.782C229.302 399.123 238.006 397.151 246.092 394.786C259.456 390.876 272.838 387.024 286.242 383.256C311.558 376.139 336.542 367.934 361.984 361.205C362.404 361.882 362.709 362.743 363.562 362.943L481.193 363.122C477.039 381.73 467.82 399.166 459.251 416.096L445.066 442.975L428.55 476.685C422.991 476.925 417.32 476.622 411.75 476.593C401.151 476.538 390.55 476.554 379.951 476.584C341.752 476.692 303.576 476.704 265.378 476.414C247.826 476.28 230.265 476.181 212.712 476.184C203.943 476.186 194.492 477 185.812 475.977L184.918 474.771L197.796 443.354L210.811 415.075Z"/>
	<path fill="#FE9715" transform="scale(0.666667 0.666667)" d="M197.796 443.354L210.811 415.075C213.345 415.884 216.394 415.529 219.048 415.514C224.392 415.483 229.735 415.368 235.079 415.315C244.268 415.225 253.461 415.267 262.651 415.274C302.881 415.306 343.114 415.469 383.345 415.53C399.925 415.555 416.503 415.613 433.083 415.758C441.794 415.834 450.547 415.731 459.251 416.096L445.066 442.975C443.952 443.295 442.917 443.54 441.75 443.563C422.497 443.943 403.086 443.335 383.819 443.27C346.782 443.144 309.744 443.187 272.706 443.219C256.539 443.233 240.376 443.283 224.21 443.48C218.805 443.546 213.4 443.606 207.994 443.634C204.639 443.651 201.109 443.892 197.796 443.354Z"/>
	<path fill="#FD7611" transform="scale(0.666667 0.666667)" d="M197.796 443.354C201.109 443.892 204.639 443.651 207.994 443.634C213.4 443.606 218.805 443.546 224.21 443.48C240.376 443.283 256.539 443.233 272.706 443.219C309.744 443.187 346.782 443.144 383.819 443.27C403.086 443.335 422.497 443.943 441.75 443.563C442.917 443.54 443.952 443.295 445.066 442.975L428.55 476.685C422.991 476.925 417.32 476.622 411.75 476.593C401.151 476.538 390.55 476.554 379.951 476.584C341.752 476.692 303.576 476.704 265.378 476.414C247.826 476.28 230.265 476.181 212.712 476.184C203.943 476.186 194.492 477 185.812 475.977L184.918 474.771L197.796 443.354Z"/>
	<path fill="#F8F7F5" transform="scale(0.666667 0.666667)" d="M476.725 123.836C478.064 121.021 480.283 119.502 482.737 117.747C491.696 124.719 499.913 133.145 507.54 141.522C523.102 158.615 539.248 178.181 542.244 201.938C544.102 216.665 542.831 232.451 538.173 246.549C537.335 249.086 530.551 263.829 530.774 264.688C531.298 266.698 535.44 269.868 537.07 271.145C544.824 277.22 554.481 281.67 563.771 284.819C568.46 286.408 575.04 287.519 578.979 290.395C582.814 293.195 584.562 301.94 586.698 306.254C588.161 309.209 589.953 311.991 591.938 314.622C597.391 321.851 604.024 328.335 610.238 334.913C616.048 341.063 621.671 347.397 627.483 353.536C630.545 356.77 634.629 359.649 637.197 363.202C639.114 365.854 640.218 368.692 640.604 371.931C641.189 376.854 640.99 387.003 637.579 390.826C636.378 392.172 634.299 392.279 632.62 392.444C632.434 392.462 631.24 392.527 631.174 392.573C630.913 392.751 631.118 393.202 631.089 393.516C630.957 394.923 630.855 396.38 630.567 397.764C629.457 403.084 624.387 406.312 619.176 406.374C612.573 406.452 606.695 401.544 601.508 398.077C598.126 395.817 594.606 393.756 590.868 392.138C584.93 389.569 578.689 388.07 572.393 386.67C559.787 383.868 546.778 382.811 534.272 379.601C520.938 376.178 509.061 370.171 499.299 360.357C492.674 353.697 487.388 346.528 483.776 337.805C483.751 342.085 483.776 346.373 483.31 350.633C482.848 354.864 481.95 358.944 481.193 363.122L363.562 362.943C362.709 362.743 362.404 361.882 361.984 361.205C365.723 359.783 369.319 357.744 372.877 355.921C379.848 352.351 386.81 348.525 393.182 343.946C401.444 338.008 409.348 331.092 416.69 324.058C426.435 314.72 435.053 304.381 443.974 294.276C448.577 289.062 454.043 283.762 457.919 278.005C459.11 276.235 460.036 274.558 460.391 272.438C459.156 270.656 456.447 269.563 454.68 268.277C449.58 264.565 444.586 259.585 441.491 254.041C435.577 243.447 434.443 232.524 432.213 220.856C429.052 204.324 424.28 188.395 415.167 174.104C411.278 168.006 405.799 163.934 401.452 158.371C406.303 161.391 410.458 165.318 414.507 169.324C417.532 172.316 420.663 175.339 423.254 178.721C433.9 192.617 439.143 208.489 446.402 224.124C448.565 228.783 451.061 233.19 453.59 237.652C461.255 251.179 471.391 265.849 485.845 272.714C486.932 271.46 487.765 270.443 488.393 268.898C488.34 268.578 488.377 268.229 488.233 267.938C487.715 266.887 485.352 265.172 484.432 264.349C480.069 260.444 475.636 256.612 471.3 252.676C467.223 248.977 463.338 245.071 460.395 240.387C459.746 239.355 458.556 237.628 458.268 236.462C458.077 235.687 458.679 233.446 458.845 232.595C460.338 224.909 463.294 217.54 464.723 209.822C465.634 204.904 465.932 200.071 465.675 195.08C464.585 173.945 454.631 153.843 439.027 139.716L439.001 139.317C438.957 138.504 438.9 137.883 438.581 137.134C438.223 136.292 438.33 136.392 438.546 135.562C440.643 133.662 449.659 133.885 452.582 134.301C454.093 134.516 455.666 135.566 457.137 135.333L457.851 135.197C467.188 142.88 475.222 151.582 482.211 161.463C486.626 167.706 490.552 174.136 493.141 181.361C498.899 197.437 500.376 217.808 494.39 234.063C492.382 239.515 489.147 244.423 486.663 249.664C488.67 253.286 492.862 255.685 496.335 257.717C502.183 250.707 506.086 242.428 509.154 233.89C512.417 224.809 514.839 215.196 515.298 205.523C516.732 175.288 496.242 145.233 476.725 123.836Z"/>
	<path fill="#020203" transform="scale(0.666667 0.666667)" d="M444.127 237.562C444.474 237.604 444.808 237.799 445.129 237.938C447.172 242.157 448.714 246.625 450.701 250.883C452.54 254.825 454.858 258.525 456.707 262.451C456.937 262.938 456.968 263.338 456.938 263.867C454.925 261.801 453.175 259.269 451.489 256.937C448.562 252.89 445.479 248.489 444.012 243.662C443.462 241.852 443.214 239.257 444.127 237.562Z"/>
	<path fill="#FD7611" transform="scale(0.666667 0.666667)" d="M613.459 372.938C614.277 372.855 614.878 372.813 615.636 373.185C620.317 375.482 625.924 384.565 627.716 389.25L627.188 389.637L625.143 389.151L624.177 388.845C620.423 387.593 611.533 383.69 610.193 379.644C609.786 378.416 609.94 376.352 610.477 375.174C611.122 373.757 612.098 373.406 613.459 372.938Z"/>
	<defs>
		<linearGradient id="gradient_0" gradientUnits="userSpaceOnUse" x1="464.81201" y1="274.31201" x2="451.42599" y2="298.43701">
			<stop offset="0" stop-color="#020406"/>
			<stop offset="1" stop-color="#071731"/>
		</linearGradient>
	</defs>
	<path fill="url(#gradient_0)" transform="scale(0.666667 0.666667)" d="M464.323 273.188L465.188 273.327C466.537 275.244 467.088 277.85 467.686 280.089C468.714 283.941 469.568 287.805 471.713 291.225C475.734 297.638 483.296 299.708 485.207 307.734C485.857 310.46 485.093 312.218 483.691 314.528C482.75 315.337 482.036 316.045 480.781 316.312C479.106 314.496 478.135 311.098 476.783 308.887C474.605 305.326 471.71 302.312 469.395 298.853C465.763 293.428 464.823 286.738 464.347 280.356C464.172 278.009 463.857 275.501 464.323 273.188Z"/>
	<path fill="#4C001A" transform="scale(0.666667 0.666667)" d="M521.386 297.938C521.836 297.87 522.293 297.789 522.75 297.852C526.127 298.325 529.479 299.414 532.931 299.835C537.162 300.351 541.393 300.707 545.646 300.943C548.509 301.101 551.956 300.949 554.673 301.827C557.222 302.65 559.547 304.444 561.653 306.042C567.775 310.687 573.839 316.45 579.014 322.125L578.812 322.439L577.826 321.938C575.191 320.027 572.358 317.683 569.407 316.311C566.198 314.82 562.419 315.507 559.062 315.994C554.664 316.632 550.207 317.389 545.771 316.838C542.382 316.417 539.182 315.278 536.642 312.906C533.571 310.039 531.783 306.048 528.697 303.191C526.608 301.257 523.001 300.01 521.386 297.938Z"/>
	<path fill="#FB4D17" transform="scale(0.666667 0.666667)" d="M181.852 482.253L184.918 474.771L185.812 475.977C194.492 477 203.943 476.186 212.712 476.184C230.265 476.181 247.826 476.28 265.378 476.414C303.576 476.704 341.752 476.692 379.951 476.584C390.55 476.554 401.151 476.538 411.75 476.593C417.32 476.622 422.991 476.925 428.55 476.685C422.789 489.461 416.457 502.007 410.32 514.608C404.95 525.635 399.205 537.186 397.409 549.453C395.589 561.893 398.758 575.267 403.167 586.868C412.43 611.238 427.067 633.915 444.026 653.612C446.621 656.626 449.353 659.549 452.234 662.292C454.747 664.685 457.516 666.98 459.578 669.786C454.143 672.276 447.64 673.187 441.76 674.174C427.201 676.619 412.549 677.572 397.808 677.986C377.981 678.543 357.65 677.863 337.989 675.176C327.364 661.087 315.289 648.3 305.214 633.746C293.653 617.044 284.539 598.93 273.543 581.881C261.455 563.14 244.744 543.171 222 538.04C217.403 537.003 212.322 537.17 207.633 537.352C202.189 524.482 195.74 512.021 189.786 499.384C187.207 493.912 185.332 487.607 182.053 482.557L181.852 482.253Z"/>
</svg>
